<svg width="23" height="23" viewBox="0 0 23 23" fill="none" xmlns="http://www.w3.org/2000/svg">
<path d="M18.1263 10.6003C18.8866 9.40633 19.1415 7.95919 18.8348 6.57728C18.5281 5.19537 17.685 3.99189 16.491 3.23159C15.297 2.4713 13.8498 2.21646 12.4679 2.52315C11.086 2.82984 9.88252 3.67293 9.12223 4.86695L9.08116 4.92168L9.04894 4.98205C8.31157 6.16432 8.06805 7.5889 8.37082 8.94898C8.41082 9.13566 8.46184 9.31981 8.52362 9.50046L4.74411 18.0938C4.62959 18.3537 4.61205 18.6461 4.69469 18.9179C4.77733 19.1897 4.95466 19.4229 5.19451 19.5751L6.46058 20.3813C6.69997 20.5342 6.98626 20.5963 7.2675 20.5562C7.54873 20.5161 7.80627 20.3765 7.99339 20.1627L14.1811 13.1029C14.3709 13.0824 14.5593 13.0508 14.7454 13.008C16.1059 12.707 17.2937 11.8837 18.0531 10.7154L18.0941 10.6607L18.1263 10.6003ZM17.6452 6.89071C17.8406 7.76635 17.7448 8.68186 17.3724 9.49808L10.44 5.08387C10.9416 4.49737 11.5969 4.06242 12.3321 3.8279C13.0674 3.59337 13.8535 3.56858 14.602 3.7563C15.3506 3.94401 16.032 4.33681 16.5696 4.89052C17.1072 5.44423 17.4797 6.13691 17.6452 6.89071ZM7.09762 19.3808L5.83156 18.5746L9.22361 10.8732C10.0341 12.0179 11.261 12.7991 12.6411 13.0493L7.09762 19.3808ZM9.53012 8.69169C9.33467 7.81605 9.43047 6.90054 9.80293 6.08432L10.44 5.08387L17.3724 9.49808C16.8707 10.0846 15.5784 11.52 14.8432 11.7545C14.1079 11.989 13.3218 12.0138 12.5732 11.8261C11.8247 11.6384 11.1433 11.2456 10.6057 10.6919C10.0681 10.1382 9.69564 9.44549 9.53012 8.69169Z" fill="#C4C4C4"/>
</svg>
