<svg width="20" height="18" viewBox="0 0 20 18" fill="none" xmlns="http://www.w3.org/2000/svg">
<path d="M14.3395 12.4905C13.876 12.3442 13.2842 11.9633 12.622 11.3003C12.0535 10.7438 11.467 10.0268 10.867 9.24525C10.723 9.4365 10.5797 9.62775 10.4357 9.82275C10.0435 10.3538 9.64224 10.89 9.23349 11.4173C10.6615 13.1498 12.1435 14.8507 14.341 15.1312V17.1562L20.0072 13.8862L14.3402 10.614V12.4905H14.3395ZM4.89399 5.9505C5.46099 6.5055 6.04749 7.2225 6.64899 8.004C6.79449 7.8075 6.94149 7.614 7.08849 7.413C7.48032 6.88087 7.87835 6.35334 8.28249 5.8305C6.75849 3.9825 5.18274 2.15025 2.73549 2.0625H0.110493V4.6875H2.73549C3.22674 4.66725 3.99699 5.05125 4.89399 5.94975V5.9505ZM14.3395 4.75575V6.65775L20.0065 3.3855L14.3395 0.113251V2.0985C12.9115 2.2635 11.7707 3.1095 10.777 4.0815C9.12924 5.7195 7.68924 7.9575 6.26799 9.7365C4.86774 11.5643 3.46299 12.6518 2.73399 12.564H0.108994V15.189H2.73399C4.37274 15.1665 5.64399 14.2395 6.73899 13.1693C8.38449 11.5313 9.82599 9.294 11.2465 7.51575C12.4037 6.003 13.5595 5.01075 14.3395 4.75575Z" fill="#C4C4C4"/>
</svg>
