<svg width="18" height="18" viewBox="0 0 18 18" fill="none" xmlns="http://www.w3.org/2000/svg">
<path d="M16.15 5.33811C16.2776 5.33811 16.3953 5.38211 16.4888 5.45581L16.5625 5.52511L16.5812 5.54711C17.2203 6.33917 17.627 7.29303 17.7562 8.30253C17.8854 9.31203 17.732 10.3376 17.313 11.2651C16.894 12.1925 16.2259 12.9856 15.383 13.5559C14.5401 14.1263 13.5555 14.4516 12.5387 14.4956L12.3 14.5H5.69999C5.58882 14.5 5.47767 14.4967 5.36669 14.4901L7.18939 16.3106C7.28034 16.4017 7.33642 16.5219 7.34788 16.6501C7.35933 16.7784 7.32544 16.9066 7.25209 17.0124L7.18939 17.0894C7.09825 17.1804 6.97809 17.2364 6.84985 17.2479C6.72161 17.2593 6.59341 17.2255 6.48759 17.1521L6.41059 17.0894L3.66059 14.3394C3.56965 14.2483 3.51356 14.1281 3.50211 13.9999C3.49065 13.8716 3.52455 13.7434 3.59789 13.6376L3.66059 13.5606L6.41059 10.8106C6.5076 10.7132 6.63759 10.6556 6.77494 10.6492C6.91229 10.6429 7.04704 10.6882 7.15263 10.7763C7.25823 10.8643 7.32701 10.9887 7.34542 11.125C7.36383 11.2613 7.33053 11.3995 7.25209 11.5124L7.18939 11.5894L5.38869 13.389L5.54269 13.3978L5.69999 13.4H12.3C13.1309 13.4001 13.9449 13.1649 14.6477 12.7216C15.3505 12.2784 15.9134 11.6451 16.2713 10.8953C16.6292 10.1454 16.7675 9.30948 16.6701 8.4843C16.5727 7.65911 16.2436 6.87837 15.721 6.23241C15.6564 6.15154 15.616 6.05408 15.6043 5.95125C15.5926 5.84842 15.6102 5.74438 15.655 5.65109C15.6998 5.55779 15.77 5.47904 15.8576 5.42387C15.9451 5.3687 16.0465 5.33935 16.15 5.33921V5.33811ZM10.8106 0.910607C10.9017 0.819664 11.0219 0.763579 11.1501 0.752122C11.2784 0.740664 11.4066 0.774561 11.5124 0.847907L11.5894 0.910607L14.3394 3.66061L14.4021 3.73761C14.4655 3.82945 14.4994 3.93841 14.4994 4.05001C14.4994 4.1616 14.4655 4.27056 14.4021 4.36241L14.3394 4.43941L11.5894 7.18941L11.5124 7.25211C11.4205 7.31549 11.3116 7.34944 11.2 7.34944C11.0884 7.34944 10.9794 7.31549 10.8876 7.25211L10.8106 7.18941L10.7479 7.11241C10.6845 7.02056 10.6506 6.9116 10.6506 6.80001C10.6506 6.68841 10.6845 6.57945 10.7479 6.48761L10.8106 6.41061L12.6113 4.61101L12.4573 4.60221L12.3 4.60001H5.69999C4.86837 4.59996 4.05376 4.83559 3.35058 5.27959C2.6474 5.72359 2.08445 6.35778 1.72697 7.10865C1.36949 7.85953 1.23213 8.69633 1.33081 9.52208C1.42948 10.3478 1.76015 11.1287 2.28449 11.7742C2.37216 11.891 2.40982 12.0379 2.38919 12.1825C2.36856 12.3271 2.29133 12.4576 2.17449 12.5453C2.11664 12.5887 2.0508 12.6203 1.98074 12.6383C1.91068 12.6562 1.83776 12.6602 1.76616 12.65C1.62155 12.6294 1.49106 12.5521 1.40339 12.4353C0.768724 11.642 0.366167 10.6885 0.240364 9.68039C0.114561 8.6723 0.270427 7.64905 0.690678 6.72414C1.11093 5.79922 1.77914 5.00877 2.62122 4.44045C3.46329 3.87213 4.44632 3.54814 5.46129 3.50441L5.69999 3.50001H12.3C12.4122 3.50001 12.5233 3.50331 12.6333 3.50991L10.8106 1.68941L10.7479 1.61241C10.6745 1.50659 10.6406 1.37839 10.6521 1.25015C10.6636 1.12191 10.7196 1.00175 10.8106 0.910607Z" fill="#C4C4C4"/>
</svg>
