<svg width="15" height="19" viewBox="0 0 15 19" fill="none" xmlns="http://www.w3.org/2000/svg">
<path d="M14.1263 8.60035C14.8866 7.40633 15.1415 5.95919 14.8348 4.57728C14.5281 3.19537 13.685 1.99189 12.491 1.23159C11.297 0.471296 9.84982 0.216463 8.46791 0.523152C7.086 0.829842 5.88252 1.67293 5.12223 2.86695L5.08116 2.92168L5.04894 2.98205C4.31157 4.16432 4.06805 5.5889 4.37082 6.94898C4.41082 7.13566 4.46184 7.31981 4.52362 7.50046L0.744113 16.0938C0.629589 16.3537 0.612054 16.6461 0.694692 16.9179C0.777329 17.1897 0.954662 17.4229 1.19451 17.5751L2.46058 18.3813C2.69997 18.5342 2.98626 18.5963 3.2675 18.5562C3.54873 18.5161 3.80627 18.3765 3.99339 18.1627L10.1811 11.1029C10.3709 11.0824 10.5593 11.0508 10.7454 11.008C12.1059 10.707 13.2937 9.88372 14.0531 8.71545L14.0941 8.66072L14.1263 8.60035ZM13.6452 4.89071C13.8406 5.76635 13.7448 6.68186 13.3724 7.49808L6.43998 3.08387C6.9416 2.49737 7.59687 2.06242 8.33212 1.8279C9.06737 1.59337 9.85347 1.56858 10.602 1.7563C11.3506 1.94401 12.032 2.33681 12.5696 2.89052C13.1072 3.44423 13.4797 4.13691 13.6452 4.89071ZM3.09762 17.3808L1.83156 16.5746L5.22361 8.8732C6.03409 10.0179 7.26105 10.7991 8.6411 11.0493L3.09762 17.3808ZM5.53012 6.69169C5.33467 5.81605 5.43047 4.90054 5.80293 4.08432L6.43998 3.08387L13.3724 7.49808C12.8707 8.08457 11.5784 9.51998 10.8432 9.7545C10.1079 9.98903 9.32182 10.0138 8.57325 9.8261C7.82468 9.63839 7.1433 9.24559 6.60571 8.69188C6.06813 8.13817 5.69564 7.44549 5.53012 6.69169Z" fill="#C4C4C4"/>
</svg>
