<svg width="43" height="43" viewBox="0 0 43 43" fill="none" xmlns="http://www.w3.org/2000/svg">
<path d="M21.5 0.25C17.2971 0.25 13.1887 1.49629 9.69413 3.83127C6.19958 6.16625 3.47592 9.48505 1.86755 13.368C0.259192 17.2509 -0.161629 21.5236 0.658307 25.6457C1.47824 29.7678 3.50211 33.5542 6.47398 36.526C9.44584 39.4979 13.2322 41.5218 17.3543 42.3417C21.4764 43.1616 25.7491 42.7408 29.632 41.1324C33.5149 39.5241 36.8337 36.8004 39.1687 33.3059C41.5037 29.8113 42.75 25.7029 42.75 21.5C42.75 18.7094 42.2003 15.9461 41.1324 13.368C40.0645 10.7898 38.4993 8.44723 36.526 6.47398C34.5528 4.50074 32.2102 2.93547 29.632 1.86756C27.0539 0.799648 24.2906 0.25 21.5 0.25ZM17.3543 28.5V13.381L29 21.5L17.3543 28.5Z" fill="white"/>
</svg>
