<svg width="26" height="26" viewBox="0 0 26 26" fill="none" xmlns="http://www.w3.org/2000/svg">
<path d="M25.9998 24.4689L19.2159 17.6851C20.9781 15.5299 21.8445 12.7798 21.6359 10.0038C21.4273 7.22769 20.1597 4.63798 18.0953 2.7703C16.0309 0.902627 13.3276 -0.100126 10.5445 -0.0305419C7.76151 0.0390426 5.11169 1.17564 3.14318 3.14415C1.17466 5.11267 0.038066 7.76249 -0.0315185 10.5455C-0.101103 13.3285 0.90165 16.0319 2.76933 18.0963C4.63701 20.1607 7.22671 21.4283 10.0028 21.6369C12.7789 21.8455 15.5289 20.9791 17.6841 19.2169L24.4679 26.0007L25.9998 24.4689ZM10.8331 19.5007C9.11899 19.5007 7.44338 18.9924 6.01815 18.0401C4.59293 17.0878 3.4821 15.7343 2.82614 14.1507C2.17018 12.567 1.99855 10.8245 2.33296 9.14329C2.66736 7.46212 3.49278 5.91787 4.70484 4.70581C5.91689 3.49376 7.46114 2.66834 9.14231 2.33393C10.8235 1.99953 12.5661 2.17116 14.1497 2.82712C15.7333 3.48308 17.0869 4.59391 18.0392 6.01913C18.9915 7.44436 19.4998 9.11997 19.4998 10.8341C19.4972 13.1318 18.5833 15.3347 16.9585 16.9595C15.3337 18.5842 13.1308 19.4982 10.8331 19.5007Z" fill="black"/>
</svg>
