<svg width="40" height="40" viewBox="0 0 40 40" fill="none" xmlns="http://www.w3.org/2000/svg">
<circle cx="20" cy="20" r="20" fill="#131313"/>
<path d="M23.3999 17.88L18.8099 13.29C18.6225 13.1037 18.369 12.9992 18.1049 12.9992C17.8407 12.9992 17.5872 13.1037 17.3999 13.29C17.3061 13.383 17.2317 13.4936 17.181 13.6154C17.1302 13.7373 17.1041 13.868 17.1041 14C17.1041 14.132 17.1302 14.2627 17.181 14.3846C17.2317 14.5064 17.3061 14.617 17.3999 14.71L21.9999 19.29C22.0936 19.383 22.168 19.4936 22.2188 19.6154C22.2695 19.7373 22.2957 19.868 22.2957 20C22.2957 20.132 22.2695 20.2627 22.2188 20.3846C22.168 20.5064 22.0936 20.617 21.9999 20.71L17.3999 25.29C17.2116 25.477 17.1052 25.7311 17.1043 25.9965C17.1034 26.2618 17.2079 26.5167 17.3949 26.705C17.5818 26.8933 17.836 26.9996 18.1013 27.0006C18.3667 27.0015 18.6216 26.897 18.8099 26.71L23.3999 22.12C23.9617 21.5575 24.2772 20.795 24.2772 20C24.2772 19.205 23.9617 18.4425 23.3999 17.88Z" fill="#7B7B7B"/>
</svg>
